<svg width="30" height="30" viewBox="0 0 30 30" fill="none" xmlns="http://www.w3.org/2000/svg">
<path d="M8.33452 9.5461C8.20093 10.9711 8.10717 13.493 8.94858 14.5664C8.94858 14.5664 8.55249 11.7961 12.1033 8.32032C13.533 6.9211 13.8634 5.01798 13.3642 3.59063C13.0806 2.78204 12.5626 2.11407 12.1126 1.64766C11.8501 1.37344 12.0517 0.921101 12.4337 0.937507C14.7447 1.04063 18.49 1.68282 20.0814 5.67657C20.7798 7.42969 20.8314 9.24141 20.4986 11.0836C20.2876 12.2602 19.5376 14.8758 21.2486 15.1969C22.4697 15.4266 23.0603 14.4563 23.3251 13.7578C23.4353 13.4672 23.8173 13.3945 24.0236 13.6266C26.0861 15.9727 26.2619 18.7359 25.8353 21.1148C25.0103 25.7133 20.3533 29.0602 15.7267 29.0602C9.94702 29.0602 5.34624 25.7531 4.15327 19.7672C3.6728 17.3508 3.91655 12.5695 7.64311 9.19454C7.91968 8.94141 8.37202 9.16641 8.33452 9.5461Z" fill="url(#paint0_radial_97_4728)"/>
<path d="M17.838 18.1453C15.7076 15.4031 16.6615 12.2742 17.1841 11.0274C17.2544 10.8633 17.0669 10.7086 16.9193 10.8094C16.0029 11.4328 14.1255 12.9 13.2513 14.9649C12.0677 17.7563 12.1521 19.1227 12.8529 20.7914C13.2747 21.7969 12.7849 22.0102 12.5388 22.0477C12.2997 22.0852 12.0794 21.9258 11.9037 21.7594C11.398 21.2739 11.0376 20.6571 10.863 19.9781C10.8255 19.8328 10.6357 19.793 10.549 19.9125C9.89272 20.8195 9.55287 22.275 9.53647 23.3039C9.4849 26.4844 12.1122 29.0625 15.2904 29.0625C19.2958 29.0625 22.2138 24.6328 19.9123 20.9297C19.2443 19.8516 18.6162 19.1461 17.838 18.1453Z" fill="url(#paint1_radial_97_4728)"/>
<defs>
<radialGradient id="paint0_radial_97_4728" cx="0" cy="0" r="1" gradientUnits="userSpaceOnUse" gradientTransform="translate(14.582 29.133) rotate(-179.751) scale(16.544 27.1454)">
<stop offset="0.314" stop-color="#FF9800"/>
<stop offset="0.662" stop-color="#FF6D00"/>
<stop offset="0.972" stop-color="#F44336"/>
</radialGradient>
<radialGradient id="paint1_radial_97_4728" cx="0" cy="0" r="1" gradientUnits="userSpaceOnUse" gradientTransform="translate(15.5107 12.6699) rotate(90.5787) scale(17.3101 13.0271)">
<stop offset="0.214" stop-color="#FFF176"/>
<stop offset="0.328" stop-color="#FFF27D"/>
<stop offset="0.487" stop-color="#FFF48F"/>
<stop offset="0.672" stop-color="#FFF7AD"/>
<stop offset="0.793" stop-color="#FFF9C4"/>
<stop offset="0.822" stop-color="#FFF8BD" stop-opacity="0.804"/>
<stop offset="0.863" stop-color="#FFF6AB" stop-opacity="0.529"/>
<stop offset="0.91" stop-color="#FFF38D" stop-opacity="0.209"/>
<stop offset="0.941" stop-color="#FFF176" stop-opacity="0"/>
</radialGradient>
</defs>
</svg>
