<svg width="31" height="30" viewBox="0 0 31 30" fill="none" xmlns="http://www.w3.org/2000/svg">
<g clip-path="url(#clip0_731_4225)">
<path d="M0.734375 13.4452C0.734375 10.726 6.32188 5.67333 13.3531 8.95458C21.8656 12.9244 30.2656 10.726 30.2656 13.4452C30.2656 15.714 25.663 17.6218 19.3995 18.1932C18.1578 18.3057 16.85 18.3671 15.5 18.3671C12.9266 18.3671 10.5083 18.1463 8.40313 17.7619C3.83281 16.9275 0.734375 15.3052 0.734375 13.4452ZM10.5781 12.2733C10.5781 11.7577 9.84266 11.3358 8.9375 11.3358C8.03234 11.3358 7.29688 11.7577 7.29688 12.2733C7.29688 12.789 8.03234 13.2108 8.9375 13.2108C9.84266 13.2108 10.5781 12.7885 10.5781 12.2733Z" fill="#ED5565"/>
<path d="M19.3995 18.193C18.1578 18.3055 16.85 18.3669 15.5 18.3669C12.9266 18.3669 10.5083 18.1462 8.40313 17.7618C3.83281 16.9274 0.734375 15.3051 0.734375 13.4451V17.1951C0.734375 19.0087 3.67812 20.5935 8.06094 21.4466C10.2453 21.8732 12.7859 22.1169 15.5 22.1169C16.9109 22.1169 18.2802 22.0508 19.5734 21.9248C25.7469 21.3388 30.2656 19.4446 30.2656 17.1951V13.4451C30.2656 15.7133 25.663 17.6216 19.3995 18.193Z" fill="#DA4453"/>
<path d="M8.9375 11.3357C9.84266 11.3357 10.5781 11.7576 10.5781 12.2732C10.5781 12.7888 9.84266 13.2107 8.9375 13.2107C8.03234 13.2107 7.29688 12.7888 7.29688 12.2732C7.29688 11.7576 8.03234 11.3357 8.9375 11.3357Z" fill="#E6E9ED"/>
<path d="M4.48438 19.7685C4.355 19.7685 4.25 19.6635 4.25 19.5341V17.6821C4.25 17.5527 4.355 17.4477 4.48438 17.4477C4.61375 17.4477 4.71875 17.5527 4.71875 17.6821V19.5341C4.71875 19.6635 4.61375 19.7685 4.48438 19.7685ZM8.23438 20.7754C8.105 20.7754 8 20.6704 8 20.541V18.6566C8 18.5272 8.105 18.4222 8.23438 18.4222C8.36375 18.4222 8.46875 18.5272 8.46875 18.6566V20.541C8.46875 20.6708 8.36375 20.7754 8.23438 20.7754ZM11.9844 21.2727C11.855 21.2727 11.75 21.1677 11.75 21.0383V19.1633C11.75 19.034 11.855 18.929 11.9844 18.929C12.1137 18.929 12.2188 19.034 12.2188 19.1633V21.0383C12.2188 21.1677 12.1137 21.2727 11.9844 21.2727ZM15.7344 21.4138C15.605 21.4138 15.5 21.3088 15.5 21.1794V19.3044C15.5 19.175 15.605 19.07 15.7344 19.07C15.8638 19.07 15.9688 19.175 15.9688 19.3044V21.1794C15.9688 21.3088 15.8638 21.4138 15.7344 21.4138ZM19.4844 21.2305C19.355 21.2305 19.25 21.1255 19.25 20.9961V19.1211C19.25 18.9918 19.355 18.8868 19.4844 18.8868C19.6138 18.8868 19.7188 18.9918 19.7188 19.1211V20.9961C19.7188 21.1255 19.6138 21.2305 19.4844 21.2305ZM23.2344 20.6868C23.105 20.6868 23 20.5818 23 20.4524V18.5774C23 18.448 23.105 18.343 23.2344 18.343C23.3638 18.343 23.4688 18.448 23.4688 18.5774V20.4524C23.4688 20.5818 23.3638 20.6868 23.2344 20.6868ZM26.9844 19.5852C26.855 19.5852 26.75 19.4802 26.75 19.3508V17.4758C26.75 17.3465 26.855 17.2415 26.9844 17.2415C27.1138 17.2415 27.2188 17.3465 27.2188 17.4758V19.3508C27.2188 19.4807 27.1138 19.5852 26.9844 19.5852Z" fill="#D3374E"/>
</g>
<defs>
<clipPath id="clip0_731_4225">
<rect width="30" height="30" fill="white" transform="translate(0.5)"/>
</clipPath>
</defs>
</svg>
