<svg width="151" height="119" viewBox="0 0 151 119" fill="none" xmlns="http://www.w3.org/2000/svg">
<path d="M55.6694 53.5397C66.1636 53.5397 74.6708 45.0316 74.6708 34.5363C74.6708 24.0411 66.1636 15.533 55.6694 15.533C45.1752 15.533 36.668 24.0411 36.668 34.5363C36.668 45.0316 45.1752 53.5397 55.6694 53.5397Z" fill="#CCF0FB"/>
<path d="M43.2607 28.3389H50.7152" stroke="#B9D4DB" stroke-width="3" stroke-miterlimit="10" stroke-linecap="round"/>
<path d="M43.2607 30.4877H50.7152" stroke="#B9D4DB" stroke-width="3" stroke-miterlimit="10" stroke-linecap="round"/>
<path d="M43.2607 32.6365H50.7152" stroke="#B9D4DB" stroke-width="3" stroke-miterlimit="10" stroke-linecap="round"/>
<path d="M141.017 62.2248V58.0264C141.017 57.2258 140.699 56.458 140.133 55.8919C139.566 55.3258 138.799 55.0078 137.998 55.0078H127.345C126.948 55.0078 126.556 54.9297 126.189 54.778C125.823 54.6263 125.491 54.4039 125.21 54.1236C124.93 53.8433 124.708 53.5105 124.556 53.1443C124.404 52.7781 124.326 52.3855 124.326 51.9891V47.7907C124.326 47.3943 124.404 47.0018 124.556 46.6355C124.708 46.2693 124.93 45.9365 125.21 45.6562C125.491 45.3759 125.823 45.1535 126.189 45.0018C126.556 44.8501 126.948 44.7721 127.345 44.7721H127.681C128.481 44.7721 129.249 44.454 129.815 43.8879C130.381 43.3218 130.699 42.554 130.699 41.7534V37.555C130.699 36.7544 130.381 35.9866 129.815 35.4205C129.249 34.8544 128.481 34.5364 127.681 34.5364H30.3177C29.5172 34.5364 28.7495 34.8544 28.1834 35.4205C27.6174 35.9866 27.2994 36.7544 27.2994 37.555V41.7534C27.2994 42.554 27.6174 43.3218 28.1834 43.8879C28.7495 44.454 29.5172 44.7721 30.3177 44.7721C31.1182 44.7721 31.886 45.0901 32.452 45.6562C33.0181 46.2223 33.3361 46.9901 33.3361 47.7907V51.9891C33.3361 52.7897 33.0181 53.5575 32.452 54.1236C31.886 54.6897 31.1182 55.0078 30.3177 55.0078H18.6456C17.8451 55.0078 17.0773 55.3258 16.5113 55.8919C15.9452 56.458 15.6272 57.2258 15.6272 58.0264V62.2248C15.6272 63.0254 15.9452 63.7932 16.5113 64.3593C17.0773 64.9254 17.8451 65.2435 18.6456 65.2435H23.2255C24.0261 65.2435 24.7938 65.5615 25.3598 66.1276C25.9259 66.6937 26.2439 67.4615 26.2439 68.2621V72.4605C26.2439 73.2611 25.9259 74.0289 25.3598 74.595C24.7938 75.1611 24.0261 75.4792 23.2255 75.4792H23.2145C22.414 75.4792 21.6462 75.7972 21.0802 76.3633C20.5142 76.9294 20.1962 77.6972 20.1962 78.4978V82.6962C20.1962 83.4968 20.5142 84.2646 21.0802 84.8307C21.6462 85.3968 22.414 85.7148 23.2145 85.7148H23.8771C24.2735 85.7148 24.666 85.7929 25.0322 85.9446C25.3984 86.0963 25.7311 86.3187 26.0114 86.599C26.2917 86.8793 26.514 87.2121 26.6657 87.5783C26.8174 87.9445 26.8954 88.3371 26.8954 88.7335V92.9319C26.8954 93.3283 26.8174 93.7209 26.6657 94.0871C26.514 94.4533 26.2917 94.7861 26.0114 95.0664C25.7311 95.3467 25.3984 95.5691 25.0322 95.7208C24.666 95.8725 24.2735 95.9506 23.8771 95.9506H13.0022C12.2017 95.9506 11.434 96.2686 10.8679 96.8347C10.3019 97.4008 9.98389 98.1686 9.98389 98.9692V103.168C9.98389 103.564 10.062 103.957 10.2136 104.323C10.3653 104.689 10.5877 105.022 10.8679 105.302C11.1482 105.582 11.481 105.805 11.8472 105.956C12.2134 106.108 12.6058 106.186 13.0022 106.186H129.301C130.102 106.186 130.87 105.868 131.436 105.302C132.002 104.736 132.32 103.968 132.32 103.168V98.9692C132.32 98.1686 132.002 97.4008 131.436 96.8347C130.87 96.2686 130.102 95.9505 129.301 95.9505H126.684C126.288 95.9505 125.895 95.8725 125.529 95.7208C125.163 95.5691 124.83 95.3467 124.55 95.0664C124.27 94.7861 124.047 94.4533 123.896 94.0871C123.744 93.7208 123.666 93.3283 123.666 92.9319V88.7335C123.666 88.3371 123.744 87.9445 123.896 87.5783C124.047 87.2121 124.27 86.8793 124.55 86.599C124.83 86.3187 125.163 86.0963 125.529 85.9446C125.895 85.7929 126.288 85.7148 126.684 85.7148H132.855C133.656 85.7148 134.423 85.3968 134.989 84.8307C135.555 84.2646 135.873 83.4968 135.873 82.6962V78.4978C135.873 78.1014 135.795 77.7089 135.644 77.3426C135.492 76.9764 135.27 76.6436 134.989 76.3633C134.709 76.083 134.376 75.8606 134.01 75.7089C133.644 75.5572 133.251 75.4792 132.855 75.4792H130.983C130.183 75.4792 129.415 75.1611 128.849 74.595C128.283 74.0289 127.965 73.2611 127.965 72.4605V68.2621C127.965 67.4615 128.283 66.6937 128.849 66.1276C129.415 65.5615 130.183 65.2435 130.983 65.2435H137.998C138.799 65.2435 139.566 64.9254 140.133 64.3593C140.699 63.7932 141.017 63.0254 141.017 62.2248Z" fill="#CCF0FB"/>
<path d="M108.629 11.9799H50.6887C49.5417 11.9799 48.6118 12.9098 48.6118 14.057V100.964C48.6118 102.112 49.5417 103.042 50.6887 103.042H108.629C109.776 103.042 110.706 102.112 110.706 100.964V14.057C110.706 12.9098 109.776 11.9799 108.629 11.9799Z" fill="#2F80ED"/>
<path d="M104.878 16.4355H54.4387C53.2917 16.4355 52.3618 17.3655 52.3618 18.5127V96.5089C52.3618 97.6561 53.2917 98.586 54.4387 98.586H104.878C106.025 98.586 106.955 97.6561 106.955 96.5089V18.5127C106.955 17.3655 106.025 16.4355 104.878 16.4355Z" fill="#CCF0FB"/>
<path d="M79.6587 49.0578C85.3102 49.0578 89.8917 44.4759 89.8917 38.8238C89.8917 33.1718 85.3102 28.5898 79.6587 28.5898C74.0072 28.5898 69.4258 33.1718 69.4258 38.8238C69.4258 44.4759 74.0072 49.0578 79.6587 49.0578Z" fill="#F9AE2B"/>
<path d="M77.9389 37.9312V35.8032C77.939 35.5898 77.9813 35.3786 78.0634 35.1816C78.1455 34.9847 78.2658 34.8059 78.4174 34.6558C78.569 34.5056 78.7488 34.387 78.9465 34.3067C79.1442 34.2264 79.3558 34.1861 79.5692 34.1881H79.7466C79.96 34.186 80.1717 34.2263 80.3694 34.3065C80.5671 34.3868 80.747 34.5054 80.8986 34.6556C81.0502 34.8058 81.1705 34.9845 81.2526 35.1815C81.3347 35.3785 81.3769 35.5898 81.3769 35.8032V36.5201C81.3772 36.5682 81.3964 36.6142 81.4303 36.6482C81.4642 36.6823 81.5101 36.7018 81.5582 36.7024L82.4167 36.7063C82.4407 36.7064 82.4645 36.7017 82.4867 36.6926C82.5089 36.6835 82.5291 36.6701 82.5462 36.6532C82.5632 36.6362 82.5767 36.6161 82.5859 36.5939C82.5952 36.5718 82.5999 36.548 82.6 36.524V35.9218C82.6001 35.5524 82.5273 35.1867 82.3859 34.8454C82.2445 34.5042 82.0373 34.1941 81.7759 33.9331C81.5146 33.672 81.2044 33.4651 80.863 33.3241C80.5217 33.183 80.1558 33.1107 79.7865 33.1112H79.5293C79.1601 33.1109 78.7944 33.1833 78.4531 33.3244C78.1119 33.4656 77.8018 33.6725 77.5406 33.9336C77.2794 34.1946 77.0722 34.5045 76.9308 34.8457C76.7895 35.1869 76.7168 35.5525 76.7168 35.9218V37.9881L77.9389 37.9312Z" fill="#2D9CDB"/>
<path d="M83.0064 44.0504C83.2213 44.0498 83.4272 43.9642 83.5792 43.8123C83.7311 43.6603 83.8167 43.4543 83.8172 43.2394V38.6272C83.8167 38.4123 83.7311 38.2064 83.5792 38.0544C83.4272 37.9024 83.2213 37.8168 83.0064 37.8163H76.3109C76.096 37.8168 75.89 37.9024 75.7381 38.0544C75.5861 38.2064 75.5005 38.4123 75.5 38.6273V43.2394C75.5005 43.4543 75.5861 43.6603 75.7381 43.8123C75.89 43.9642 76.096 44.0498 76.3109 44.0504L83.0064 44.0504Z" fill="#2F80ED"/>
<path d="M79.6589 39.3983C79.4286 39.3991 79.2081 39.4909 79.0453 39.6537C78.8825 39.8166 78.7908 40.0371 78.79 40.2674C78.794 40.3981 78.8279 40.5262 78.8892 40.6417C78.9504 40.7573 79.0373 40.8572 79.1433 40.9339V41.9537C79.1433 42.0904 79.1976 42.2216 79.2943 42.3183C79.391 42.415 79.5221 42.4693 79.6589 42.4693C79.7956 42.4693 79.9268 42.415 80.0234 42.3183C80.1201 42.2216 80.1745 42.0904 80.1745 41.9537V40.9339C80.2802 40.8571 80.367 40.7571 80.4282 40.6416C80.4895 40.526 80.5235 40.398 80.5277 40.2674C80.5269 40.0372 80.4352 39.8166 80.2724 39.6537C80.1096 39.4909 79.8891 39.3991 79.6589 39.3983Z" fill="#2D9CDB"/>
<path d="M52.3623 87.1293V96.8455C52.3623 97.074 52.4073 97.3004 52.4948 97.5115C52.5822 97.7227 52.7104 97.9146 52.872 98.0762C53.0336 98.2378 53.2255 98.366 53.4366 98.4535C53.6478 98.5409 53.8741 98.5859 54.1026 98.5859H105.215C105.444 98.5859 105.67 98.5409 105.881 98.4535C106.092 98.366 106.284 98.2378 106.446 98.0762C106.607 97.9146 106.735 97.7227 106.823 97.5115C106.91 97.3004 106.955 97.074 106.955 96.8455V87.1293H52.3623Z" fill="#2D9CDB"/>
<path d="M106.955 18.176C106.955 17.9475 106.91 17.7211 106.823 17.51C106.735 17.2988 106.607 17.1069 106.446 16.9453C106.284 16.7837 106.092 16.6555 105.881 16.568C105.67 16.4806 105.444 16.4355 105.215 16.4355H54.1026C53.8741 16.4355 53.6478 16.4806 53.4366 16.568C53.2255 16.6555 53.0336 16.7837 52.872 16.9453C52.7104 17.1069 52.5822 17.2988 52.4948 17.51C52.4073 17.7211 52.3623 17.9475 52.3623 18.176V21.657H106.955V18.176Z" fill="#2D9CDB"/>
<path d="M79.6586 19.3595C81.2733 19.3595 82.5823 18.0504 82.5823 16.4355C82.5823 14.8206 81.2733 13.5115 79.6586 13.5115C78.0439 13.5115 76.7349 14.8206 76.7349 16.4355C76.7349 18.0504 78.0439 19.3595 79.6586 19.3595Z" fill="#F9AE2B"/>
<path d="M79.6586 95.7816C81.2733 95.7816 82.5823 94.4725 82.5823 92.8576C82.5823 91.2427 81.2733 89.9336 79.6586 89.9336C78.0439 89.9336 76.7349 91.2427 76.7349 92.8576C76.7349 94.4725 78.0439 95.7816 79.6586 95.7816Z" fill="#F9AE2B"/>
<path d="M74.372 52.6375H58.9106C58.5282 52.6375 58.2183 52.9474 58.2183 53.3298V57.8258C58.2183 58.2082 58.5282 58.5182 58.9106 58.5182H74.372C74.7544 58.5182 75.0643 58.2082 75.0643 57.8258V53.3298C75.0643 52.9474 74.7544 52.6375 74.372 52.6375Z" fill="#F9AE2B"/>
<path d="M100.546 52.6375H81.4648C81.0824 52.6375 80.7725 52.9474 80.7725 53.3298V78.9709C80.7725 79.3533 81.0824 79.6633 81.4648 79.6633H100.546C100.928 79.6633 101.238 79.3533 101.238 78.9709V53.3298C101.238 52.9474 100.928 52.6375 100.546 52.6375Z" fill="#EE781D"/>
<path d="M74.372 63.21H58.9106C58.5282 63.21 58.2183 63.5199 58.2183 63.9023V68.3984C58.2183 68.7807 58.5282 69.0907 58.9106 69.0907H74.372C74.7544 69.0907 75.0643 68.7807 75.0643 68.3984V63.9023C75.0643 63.5199 74.7544 63.21 74.372 63.21Z" fill="#F9AE2B"/>
<path d="M74.372 73.7825H58.9106C58.5282 73.7825 58.2183 74.0925 58.2183 74.4749V78.9709C58.2183 79.3533 58.5282 79.6633 58.9106 79.6633H74.372C74.7544 79.6633 75.0643 79.3533 75.0643 78.9709V74.4749C75.0643 74.0925 74.7544 73.7825 74.372 73.7825Z" fill="#F9AE2B"/>
<path d="M91.0053 71.9067H85.108C84.9942 71.9067 84.8823 71.8767 84.7837 71.8198C84.6851 71.7629 84.6033 71.681 84.5464 71.5824C84.4894 71.4838 84.4595 71.372 84.4595 71.2581C84.4595 71.1443 84.4894 71.0324 84.5464 70.9338L87.495 65.8261L90.4437 60.7183C90.5006 60.6197 90.5824 60.5379 90.681 60.4809C90.7796 60.424 90.8915 60.394 91.0053 60.394C91.1191 60.394 91.231 60.424 91.3296 60.4809C91.4282 60.5379 91.51 60.6197 91.5669 60.7183L94.5156 65.8261L97.4642 70.9338C97.5212 71.0324 97.5511 71.1443 97.5511 71.2581C97.5511 71.372 97.5212 71.4838 97.4642 71.5824C97.4073 71.681 97.3254 71.7629 97.2269 71.8198C97.1283 71.8767 97.0164 71.9067 96.9026 71.9067H91.0053Z" fill="#F9AE2B"/>
<path d="M91.0051 63.0938H91.0051C90.8259 63.0938 90.6807 63.239 90.6807 63.4182V68.2552C90.6807 68.4344 90.8259 68.5797 91.0051 68.5797H91.0051C91.1843 68.5797 91.3296 68.4344 91.3296 68.2552V63.4182C91.3296 63.239 91.1843 63.0938 91.0051 63.0938Z" fill="#2D9CDB"/>
<path d="M91.7777 70.0957C91.82 69.6691 91.5083 69.289 91.0817 69.2467C90.6551 69.2045 90.275 69.5161 90.2327 69.9427C90.1905 70.3694 90.5021 70.7495 90.9287 70.7917C91.3554 70.834 91.7355 70.5223 91.7777 70.0957Z" fill="#2D9CDB"/>
<path d="M40.6659 87.4228V81.9911C40.6659 81.4465 40.7739 80.9072 40.9835 80.4045C41.1931 79.9018 41.5002 79.4457 41.8871 79.0623C42.274 78.679 42.733 78.3762 43.2376 78.1713C43.7422 77.9664 44.2824 77.8635 44.827 77.8686H45.2799C45.8245 77.8633 46.3648 77.9661 46.8695 78.1709C47.3742 78.3757 47.8333 78.6785 48.2202 79.0619C48.6072 79.4452 48.9143 79.9015 49.1238 80.4043C49.3334 80.9071 49.4412 81.4464 49.4411 81.9911V83.8209C49.442 83.9436 49.491 84.061 49.5775 84.148C49.664 84.235 49.7812 84.2847 49.9039 84.2863L52.0952 84.2962C52.1565 84.2964 52.2172 84.2846 52.2739 84.2613C52.3306 84.238 52.3822 84.2038 52.4256 84.1606C52.4691 84.1174 52.5036 84.066 52.5271 84.0094C52.5507 83.9528 52.5629 83.8921 52.563 83.8308V82.2939C52.5632 81.351 52.3776 80.4174 52.0167 79.5464C51.6558 78.6753 51.1267 77.884 50.4597 77.2177C49.7927 76.5514 49.0008 76.0231 48.1295 75.6632C47.2582 75.3032 46.3244 75.1186 45.3816 75.1199H44.7253C43.7827 75.119 42.8493 75.304 41.9783 75.6642C41.1073 76.0243 40.3159 76.5526 39.6491 77.2189C38.9824 77.8852 38.4536 78.6763 38.0927 79.5471C37.7319 80.4179 37.5463 81.3513 37.5464 82.2939V87.568L40.6659 87.4228Z" fill="#EE781D"/>
<path d="M53.5997 103.042C54.1482 103.04 54.6738 102.822 55.0617 102.434C55.4495 102.046 55.668 101.52 55.6694 100.972V89.1992C55.668 88.6507 55.4495 88.1249 55.0617 87.737C54.6738 87.3492 54.1482 87.1306 53.5997 87.1293H36.5097C35.9611 87.1306 35.4355 87.3492 35.0476 87.737C34.6598 88.1249 34.4413 88.6507 34.4399 89.1992V100.972C34.4413 101.52 34.6598 102.046 35.0476 102.434C35.4355 102.822 35.9611 103.04 36.5097 103.042H53.5997Z" fill="#F9AE2B"/>
<path d="M45.0548 91.1675C44.4672 91.1695 43.9043 91.4039 43.4889 91.8194C43.0734 92.235 42.8393 92.7981 42.8374 93.3857C42.8476 93.7194 42.9341 94.0462 43.0904 94.3412C43.2467 94.6362 43.4685 94.8913 43.7389 95.0871V97.69C43.7394 98.0387 43.8782 98.373 44.1249 98.6195C44.3717 98.8659 44.7061 99.0043 45.0548 99.0043C45.4035 99.0043 45.7379 98.8659 45.9847 98.6195C46.2314 98.373 46.3702 98.0387 46.3707 97.69V95.0871C46.6406 94.8909 46.8622 94.6357 47.0184 94.3408C47.1747 94.0459 47.2614 93.7192 47.2722 93.3857C47.2703 92.7981 47.0361 92.235 46.6207 91.8194C46.2053 91.4039 45.6424 91.1695 45.0548 91.1675Z" fill="#EE781D"/>
<path d="M14.8193 99.0093H22.2738" stroke="#B9D4DB" stroke-width="3" stroke-miterlimit="10" stroke-linecap="round"/>
<path d="M14.8193 101.158H22.2738" stroke="#B9D4DB" stroke-width="3" stroke-miterlimit="10" stroke-linecap="round"/>
<path d="M14.8193 103.307H22.2738" stroke="#B9D4DB" stroke-width="3" stroke-miterlimit="10" stroke-linecap="round"/>
<path d="M114.23 65.5535H121.685" stroke="#B9D4DB" stroke-width="3" stroke-miterlimit="10" stroke-linecap="round"/>
<path d="M114.23 67.7023H121.685" stroke="#B9D4DB" stroke-width="3" stroke-miterlimit="10" stroke-linecap="round"/>
<path d="M114.23 69.8511H121.685" stroke="#B9D4DB" stroke-width="3" stroke-miterlimit="10" stroke-linecap="round"/>
<path d="M31.9722 73.9336C34.066 73.9336 35.7633 72.2361 35.7633 70.1422C35.7633 68.0482 34.066 66.3507 31.9722 66.3507C29.8785 66.3507 28.1812 68.0482 28.1812 70.1422C28.1812 72.2361 29.8785 73.9336 31.9722 73.9336Z" fill="#B9D4DB"/>
<path d="M32.1261 64.3867C33.2167 64.3867 34.1008 63.5025 34.1008 62.4118C34.1008 61.3211 33.2167 60.4369 32.1261 60.4369C31.0355 60.4369 30.1514 61.3211 30.1514 62.4118C30.1514 63.5025 31.0355 64.3867 32.1261 64.3867Z" fill="#B9D4DB"/>
<path d="M45.2784 65.275C46.2224 65.275 46.9875 64.5097 46.9875 63.5657C46.9875 62.6217 46.2224 61.8564 45.2784 61.8564C44.3345 61.8564 43.5693 62.6217 43.5693 63.5657C43.5693 64.5097 44.3345 65.275 45.2784 65.275Z" fill="#B9D4DB"/>
<path d="M39.0609 63.0439C39.69 63.0439 40.2 62.5338 40.2 61.9047C40.2 61.2755 39.69 60.7655 39.0609 60.7655C38.4319 60.7655 37.9219 61.2755 37.9219 61.9047C37.9219 62.5338 38.4319 63.0439 39.0609 63.0439Z" fill="#B9D4DB"/>
<path d="M40.3844 70.8537C41.8925 70.8537 43.115 69.6311 43.115 68.1228C43.115 66.6146 41.8925 65.392 40.3844 65.392C38.8763 65.392 37.6538 66.6146 37.6538 68.1228C37.6538 69.6311 38.8763 70.8537 40.3844 70.8537Z" fill="#B9D4DB"/>
<path d="M123.252 102.08C125.345 102.08 127.043 100.382 127.043 98.2884C127.043 96.1944 125.345 94.4969 123.252 94.4969C121.158 94.4969 119.46 96.1944 119.46 98.2884C119.46 100.382 121.158 102.08 123.252 102.08Z" fill="#B9D4DB"/>
<path d="M115.227 102.132C116.318 102.132 117.202 101.248 117.202 100.157C117.202 99.0662 116.318 98.182 115.227 98.182C114.137 98.182 113.252 99.0662 113.252 100.157C113.252 101.248 114.137 102.132 115.227 102.132Z" fill="#B9D4DB"/>
<path d="M115.227 94.8933C116.735 94.8933 117.958 93.6706 117.958 92.1624C117.958 90.6542 116.735 89.4315 115.227 89.4315C113.719 89.4315 112.497 90.6542 112.497 92.1624C112.497 93.6706 113.719 94.8933 115.227 94.8933Z" fill="#B9D4DB"/>
<path d="M123.561 34.8392C125.654 34.8392 127.352 33.1417 127.352 31.0477C127.352 28.9537 125.654 27.2562 123.561 27.2562C121.467 27.2562 119.77 28.9537 119.77 31.0477C119.77 33.1417 121.467 34.8392 123.561 34.8392Z" fill="#B9D4DB"/>
<path d="M116.041 36.5486C116.985 36.5486 117.75 35.7833 117.75 34.8393C117.75 33.8953 116.985 33.13 116.041 33.13C115.097 33.13 114.332 33.8953 114.332 34.8393C114.332 35.7833 115.097 36.5486 116.041 36.5486Z" fill="#B9D4DB"/>
<path d="M113.945 31.0477C115.454 31.0477 116.676 29.825 116.676 28.3168C116.676 26.8086 115.454 25.5859 113.945 25.5859C112.437 25.5859 111.215 26.8086 111.215 28.3168C111.215 29.825 112.437 31.0477 113.945 31.0477Z" fill="#B9D4DB"/>
</svg>
