<svg width="151" height="109" viewBox="0 0 151 109" fill="none" xmlns="http://www.w3.org/2000/svg">
<g clip-path="url(#clip0_61_6864)">
<path opacity="0.18" d="M24.4112 22.7502C19.9786 23.6894 15.3712 24.7086 11.8127 27.5132C8.80786 29.8792 4.12577 34.2473 2.70712 37.7963C-3.30257 52.7878 3.49202 71.0299 16.6806 80.3593C22.8833 84.7474 30.6139 86.8713 36.1884 92.0365C39.7141 95.3035 42.1835 99.6278 45.935 102.631C51.4166 107.015 58.8176 107.985 65.8216 108.455C70.6876 108.784 75.743 108.926 80.2576 107.077C83.521 105.741 86.2855 103.45 88.999 101.191L106.975 86.1888C109.864 83.7809 112.564 79.9461 116.325 79.9716C150.172 80.2137 152.454 40.4044 100.507 22.7721C95.9283 21.2178 92.7887 16.8971 88.4872 14.6821C79.602 10.1047 69.3764 11.5881 60.4147 14.7549C49.0364 18.7862 36.2193 20.2404 24.4112 22.7502Z" fill="#2F80ED"/>
<path opacity="0.05" d="M142.378 86.9714C143.794 86.995 145.619 87.3481 145.838 88.7459C145.956 89.4739 145.539 90.1819 145.087 90.7698C142.263 94.4589 137.583 96.3245 132.964 96.825C128.346 97.3255 123.691 96.6248 119.08 96.0569C112.417 95.2343 105.728 94.6883 99.0113 94.4189C94.2364 94.226 89.2137 94.1059 85.1016 91.6743C84.3386 91.2248 83.5883 90.6624 83.2222 89.8543C82.4938 88.2472 83.6447 86.2907 85.2255 85.5099C86.8062 84.7291 88.6637 84.8056 90.4266 84.9002C107.738 85.8321 125.037 86.9714 142.378 86.9714Z" fill="#000405"/>
<path d="M142.438 23.0051C142.438 23.0051 136.277 30.9676 135.108 32.3017C132.975 34.726 131.6 37.9055 131.6 37.9055L128.504 51.0716L125.044 50.1488L117.521 48.1468C117.521 48.1468 120.195 40.9504 118.9 38.7664C117.173 35.8544 118.667 34.0344 119.06 32.784C119.789 30.4671 116.068 26.2319 116.068 26.2319L113.684 15.5612L117.283 15.0807L119.894 23.7312L124.369 27.7225L127.556 27.8918C127.556 27.8918 129.96 28.3868 131.708 27.5788C133.38 26.8034 139.285 20.1476 139.285 20.1476L141.695 22.3316L142.438 23.0051ZM112.923 36.5078V83.9302C112.923 84.5243 112.805 85.1127 112.578 85.6615C112.35 86.2104 112.016 86.709 111.596 87.129C111.175 87.549 110.676 87.882 110.127 88.1092C109.577 88.3364 108.988 88.4532 108.394 88.4529H37.4267C36.832 88.4529 36.2432 88.3358 35.6938 88.1083C35.1444 87.8808 34.6452 87.5474 34.2248 87.1271C33.8044 86.7067 33.4709 86.2077 33.2435 85.6586C33.0161 85.1094 32.8992 84.5209 32.8994 83.9265V36.5078C32.8989 35.9134 33.0157 35.3247 33.243 34.7755C33.4703 34.2262 33.8038 33.7271 34.2243 33.3067C34.6447 32.8863 35.144 32.5529 35.6935 32.3255C36.243 32.0981 36.832 31.9811 37.4267 31.9814H108.394C109.595 31.9814 110.747 32.4583 111.596 33.3071C112.446 34.156 112.923 35.3073 112.923 36.5078Z" fill="#2F80ED"/>
<path d="M111.696 33.4283H34.0049L34.635 32.946C34.6641 32.9208 34.6945 32.8971 34.726 32.875L71.6838 4.56282L72.8511 3.66919L110.452 32.4764L111.696 33.4283Z" fill="#2F80ED"/>
<path d="M112.923 36.5077L111.978 37.1902L105.096 42.1716L71.6838 66.3578L39.5501 41.6256L32.8994 36.5077L32.985 35.6286C33.147 34.8045 33.5369 34.0422 34.1105 33.4282C34.2715 33.2531 34.4469 33.0917 34.6349 32.9459C34.664 32.9207 34.6944 32.897 34.726 32.875C35.506 32.2934 36.4535 31.9799 37.4267 31.9813H108.394C109.519 31.9819 110.604 32.401 111.437 33.1569C112.27 33.9129 112.792 34.9516 112.901 36.0709C112.916 36.2161 112.923 36.3618 112.923 36.5077Z" fill="#2F80ED"/>
<path opacity="0.61" d="M34.635 32.9424C34.4478 33.0892 34.2725 33.2505 34.1105 33.4247H34.0049L34.635 32.9424Z" fill="url(#paint0_linear_61_6864)"/>
<path opacity="0.61" d="M112.923 36.5078L111.978 37.1921L105.096 42.1717L71.6838 66.3579L39.5501 41.6275L32.8994 36.5078L32.985 35.6305C33.1471 34.8058 33.5369 34.043 34.1105 33.4283C34.2724 33.2541 34.4478 33.0928 34.6349 32.946L34.726 32.8769L71.6838 4.56282L72.8511 3.66919L110.452 32.4764C111.13 32.8215 111.71 33.332 112.138 33.9607C112.566 34.5893 112.829 35.3158 112.901 36.0728C112.916 36.2173 112.923 36.3625 112.923 36.5078Z" fill="url(#paint1_linear_61_6864)"/>
<path d="M105.096 33.0042V42.1735L92.7652 51.0916L89.937 53.1445L71.6839 66.3579L54.5162 53.1445L51.8592 51.0988L39.5503 41.6347V33.0042C39.5503 32.2913 39.8337 31.6075 40.3381 31.1034C40.8425 30.5993 41.5267 30.316 42.2401 30.316H102.408C103.121 30.3165 103.805 30.6 104.309 31.104C104.813 31.6081 105.096 32.2916 105.096 33.0042Z" fill="white"/>
<path d="M96.0594 41.0433H47.4356C47.1641 41.0433 46.9038 40.9355 46.7119 40.7437C46.5199 40.5519 46.4121 40.2917 46.4121 40.0204C46.4121 39.8861 46.4386 39.7531 46.49 39.629C46.5415 39.5049 46.6168 39.3921 46.7119 39.2971C46.8069 39.2022 46.9197 39.1268 47.0439 39.0754C47.1681 39.024 47.3012 38.9976 47.4356 38.9976H96.0594C96.1938 38.9976 96.3269 39.024 96.4511 39.0754C96.5753 39.1268 96.6881 39.2022 96.7831 39.2971C96.8782 39.3921 96.9535 39.5049 97.005 39.629C97.0564 39.7531 97.0829 39.8861 97.0829 40.0204C97.0829 40.2917 96.9751 40.5519 96.7831 40.7437C96.5912 40.9355 96.3309 41.0433 96.0594 41.0433Z" fill="url(#paint2_linear_61_6864)"/>
<path d="M96.0594 47.0948H47.4356C47.1641 47.0948 46.9038 46.987 46.7119 46.7952C46.5199 46.6034 46.4121 46.3432 46.4121 46.0719C46.4121 45.8006 46.5199 45.5405 46.7119 45.3487C46.9038 45.1568 47.1641 45.0491 47.4356 45.0491H96.0594C96.3309 45.0491 96.5912 45.1568 96.7831 45.3487C96.9751 45.5405 97.0829 45.8006 97.0829 46.0719C97.0829 46.3432 96.9751 46.6034 96.7831 46.7952C96.5912 46.987 96.3309 47.0948 96.0594 47.0948Z" fill="url(#paint3_linear_61_6864)"/>
<path d="M92.7652 51.0989L89.937 53.1446H54.5162L51.8574 51.0989H92.7652Z" fill="url(#paint4_linear_61_6864)"/>
<path opacity="0.05" d="M71.6836 66.3579L42.0249 88.4566H101.954L71.6836 66.3579Z" fill="#000405"/>
<path d="M46.101 16.4165C44.6077 13.2151 38.9986 13.7411 38.9986 13.7411C42.4588 11.7009 41.7959 6.51926 41.754 6.2135C43.2673 10.7308 48.4921 9.73342 48.9602 9.63514C45.4909 10.4905 46.101 16.4165 46.101 16.4165ZM36.3762 22.985C35.4274 20.9502 31.8599 21.2851 31.8599 21.2851C34.118 19.9437 33.6063 16.4911 33.6063 16.4911V16.5112C34.5751 19.3668 37.8896 18.7334 38.1846 18.6715C35.9883 19.2175 36.3762 22.985 36.3762 22.985Z" fill="#2F80ED"/>
<path d="M131.905 16.8716C132.344 16.5183 132.901 16.3429 133.464 16.3802C133.876 16.3634 134.279 16.5025 134.593 16.7696C134.834 17.0411 134.988 17.3793 135.033 17.7397C135.122 18.1865 135.156 18.6425 135.134 19.0974C135.094 19.9328 134.877 20.8174 135.237 21.5727C135.324 21.7521 135.439 21.9158 135.58 22.0568C135.743 22.2392 135.97 22.3519 136.214 22.3717C136.335 22.3771 136.454 22.3389 136.549 22.2641C136.645 22.1894 136.711 22.0829 136.734 21.964C136.613 22.2337 136.432 22.4721 136.204 22.6607C135.976 22.8493 135.708 22.9831 135.42 23.0518C135.132 23.1206 134.832 23.1224 134.544 23.0572C134.255 22.9919 133.985 22.8614 133.755 22.6756L134.072 23.3181C133.81 23.2503 133.556 23.1539 133.314 23.0305C132.54 22.6101 132.107 21.7565 131.901 20.8938C131.719 20.1021 131.683 19.2849 131.511 18.4896C131.378 17.8798 131.411 17.312 131.905 16.8716Z" fill="#3F3D56"/>
<path d="M131.671 17.7452C131.829 17.7401 131.986 17.7642 132.134 17.8162C132.257 17.8673 132.364 17.9512 132.442 18.0587C132.521 18.1662 132.569 18.2932 132.58 18.4259C132.587 18.5593 132.555 18.6917 132.487 18.8071C132.42 18.9224 132.321 19.0158 132.201 19.0756C132.046 19.1396 131.878 19.1688 131.71 19.1612C131.557 19.1612 131.402 19.1612 131.249 19.1466C131.205 19.1467 131.162 19.1361 131.123 19.1157C131.084 19.0836 131.055 19.0414 131.038 18.9937C130.938 18.7954 130.863 18.5858 130.814 18.3695C130.688 17.6997 131.14 17.7397 131.671 17.7452Z" fill="#2F80ED"/>
<path d="M128.709 24.1353C128.709 24.1353 128.679 24.6612 128.643 25.3456C128.612 25.9225 128.574 26.6196 128.543 27.1983C128.49 28.1774 128.069 29.1003 127.365 29.7828C126.953 30.2032 125.971 30.9876 125.223 30.7092C124.859 30.5745 124.846 30.1158 124.922 29.841C125.091 29.34 125.185 28.8169 125.201 28.2885C125.213 27.8608 125.175 27.4332 125.086 27.0145C124.616 25.8443 128.709 24.1353 128.709 24.1353Z" fill="url(#paint5_linear_61_6864)"/>
<path d="M128.708 24.1353C128.708 24.1353 128.679 24.6612 128.643 25.3456C128.355 25.9862 128.086 26.5086 127.938 26.7688C127.641 27.2948 126.421 28.1229 125.206 28.2885C125.218 27.8608 125.18 27.4332 125.092 27.0145C124.616 25.8443 128.708 24.1353 128.708 24.1353Z" fill="url(#paint6_linear_61_6864)"/>
<path d="M125.145 17.1664C124.609 17.199 124.085 17.3416 123.606 17.5853C123.127 17.8291 122.704 18.1687 122.362 18.5831C122.02 18.9975 121.768 19.4777 121.62 19.994C121.472 20.5102 121.432 21.0513 121.503 21.5836C121.624 23.1738 122.033 24.7288 122.708 26.1737C123.983 28.3577 127.214 26.5614 127.725 25.6623C128.237 24.7632 130.2 20.7082 129.375 19.5598C128.807 18.7844 127.232 17.0827 125.145 17.1664Z" fill="url(#paint7_linear_61_6864)"/>
<path d="M123.997 14.9478C125.368 14.5476 126.83 14.5903 128.175 15.0697C129.499 15.572 130.641 16.6058 131.145 17.929C131.579 19.1551 131.537 20.4994 131.028 21.6964C130.516 22.8837 129.699 23.9151 128.661 24.6867C128.393 23.8677 129.218 23.1397 129.539 22.3407C129.613 22.193 129.629 22.0229 129.584 21.8638C129.468 21.5672 129.023 21.5344 128.77 21.7273C128.517 21.9203 128.406 22.246 128.313 22.55C128.559 21.2487 128.741 19.7199 127.82 18.7662C127.273 18.202 126.448 17.9908 125.662 17.9836C124.939 17.9814 124.224 18.1275 123.56 18.4127C122.896 18.6979 122.298 19.1161 121.803 19.6416C121.513 19.9528 121.102 20.335 120.734 20.1203C120.619 20.042 120.53 19.9328 120.475 19.8054C119.388 17.6541 122.243 15.4283 123.997 14.9478Z" fill="#3F3D56"/>
<path d="M125.756 17.352C124.846 16.9516 123.89 16.624 122.901 16.624C121.912 16.624 120.887 16.9589 120.233 17.7015C119.891 18.1153 119.643 18.5975 119.504 19.1156C119.395 19.4398 119.351 19.7827 119.377 20.1239C119.417 20.3714 119.477 20.615 119.559 20.8519C119.73 21.4416 119.803 22.1259 119.43 22.621C119.361 22.7197 119.27 22.8014 119.165 22.8601C119.059 22.9187 118.942 22.9527 118.821 22.9595C118.701 22.9616 118.584 22.9197 118.492 22.8417C118.4 22.7636 118.34 22.6547 118.323 22.5354C118.162 22.9886 118.424 23.5201 118.842 23.7585C119.056 23.8678 119.292 23.9303 119.533 23.9419C119.773 23.9535 120.014 23.914 120.238 23.8258C120.427 23.7664 120.602 23.6705 120.754 23.5437C120.904 23.3995 121.027 23.2301 121.118 23.0432C121.499 22.3534 121.69 21.5872 121.974 20.8428C122.258 20.0984 122.67 19.3868 123.342 18.9682C123.874 18.6777 124.472 18.5292 125.079 18.5369C125.682 18.5168 126.288 18.566 126.889 18.5114C127.49 18.4568 127.055 18.1001 126.796 17.9126C126.47 17.6905 126.121 17.5027 125.756 17.352Z" fill="#3F3D56"/>
<path d="M150.216 10.8273C150.371 10.9474 148.921 12.0758 148.921 12.0758C148.921 12.0758 148.244 13.2424 147.555 13.5664C146.867 13.8904 141.695 22.3298 141.695 22.3298L139.653 20.4807L144.057 14.5601C144.057 14.5601 145.514 11.7701 145.352 10.5561C145.352 10.5561 145.439 9.12193 145.878 9.78805C146.187 10.2631 145.989 11.0111 146.355 11.0912C146.396 11.0948 146.436 11.0859 146.472 11.0657C146.775 10.8815 147.054 10.6588 147.3 10.4032C148.029 9.70979 148.899 8.74518 148.899 8.74518C148.899 8.74518 149.376 8.54316 149.316 8.74518C149.256 8.94721 148.38 10.3104 148.331 10.3832C148.413 10.3086 149.757 9.10919 149.97 9.20201C150.183 9.29483 148.928 10.6762 148.855 10.7563C148.934 10.7017 150.367 9.70433 150.474 9.79351C150.677 9.96278 149.382 11.0857 149.274 11.1713C149.356 11.1276 150.068 10.7108 150.216 10.8273Z" fill="url(#paint8_linear_61_6864)"/>
<path d="M148.679 11.6918C148.57 11.7271 148.455 11.7365 148.342 11.7191C147.975 11.6911 147.606 11.6851 147.238 11.7009C146.991 11.7118 146.479 11.8829 146.466 11.4988C146.466 11.3969 146.492 11.2968 146.486 11.1949C146.486 11.1512 146.475 11.1075 146.468 11.0639C146.772 10.8796 147.05 10.657 147.297 10.4014C147.408 10.4386 147.514 10.492 147.61 10.5597C147.853 10.7162 148.092 10.8709 148.327 11.0238C148.455 11.1075 148.582 11.1913 148.704 11.2823C148.758 11.316 148.802 11.3647 148.828 11.4224C148.84 11.4777 148.831 11.5355 148.804 11.585C148.777 11.6345 148.732 11.6724 148.679 11.6918Z" fill="url(#paint9_linear_61_6864)"/>
<path d="M113.118 1.35046C112.921 1.3723 113.558 3.09403 113.558 3.09403C113.558 3.09403 113.518 4.44267 113.932 5.07967C114.345 5.71668 114.287 15.4811 114.287 15.4811L116.997 15.1171L116.381 7.76238C116.381 7.76238 116.616 4.62467 117.394 3.68008C117.394 3.68008 118.075 2.41517 117.352 2.75005C116.838 2.99029 116.611 3.72922 116.259 3.60546C116.222 3.58733 116.193 3.55801 116.174 3.52174C116.008 3.20634 115.886 2.87031 115.809 2.52255C115.553 1.54884 115.327 0.271185 115.327 0.271185C115.327 0.271185 115.035 -0.147419 114.988 0.0546029C114.941 0.256625 114.957 1.87462 114.959 1.96744C114.928 1.8637 114.422 0.131044 114.185 0.100103C113.948 0.069163 114.292 1.90192 114.314 2.00748C114.274 1.92012 113.586 0.318506 113.444 0.336706C113.183 0.374926 113.701 2.01658 113.739 2.13852C113.688 2.05844 113.304 1.33226 113.118 1.35046Z" fill="url(#paint10_linear_61_6864)"/>
<path d="M113.963 2.89565C114.036 2.98202 114.129 3.04996 114.234 3.09403C114.561 3.26428 114.877 3.4539 115.181 3.66188C115.387 3.80202 115.727 4.22062 115.944 3.89666C116.002 3.81294 116.03 3.71466 116.088 3.62912C116.115 3.59294 116.143 3.5583 116.174 3.52538C116.008 3.20998 115.886 2.87395 115.809 2.52619C115.695 2.49915 115.577 2.48933 115.46 2.49707L114.606 2.51345C114.453 2.51345 114.3 2.51345 114.147 2.53347C114.082 2.53318 114.019 2.55219 113.965 2.58807C113.927 2.63054 113.907 2.68502 113.906 2.74152C113.906 2.79802 113.926 2.85274 113.963 2.89565Z" fill="url(#paint11_linear_61_6864)"/>
<path d="M103.515 87.2171C102.787 88.7041 102.257 89.8598 102.257 89.8598L93.0913 90.2966C93.0913 90.2966 94.6101 86.2798 97.0814 87.3172C97.9173 87.6667 100.946 87.0096 100.946 87.0096L101.04 86.7057L103.515 87.2171Z" fill="url(#paint12_linear_61_6864)"/>
<path d="M136 87.6667L134.596 88.4529L122.577 75.8256L121.251 58.9686L110.291 68.9041C110.291 68.9041 110.585 75.7455 106.753 81.0982C106.066 82.0574 104.67 84.8438 103.613 87.0206C103.581 87.0879 103.548 87.1571 103.517 87.2244L103.311 87.1825L102.595 87.0333L101.042 86.713L106.079 66.3652L117.525 48.1541L125.048 50.1561L128.508 51.0788C128.508 51.0788 130.843 55.7545 128.508 67.8558L126.96 74.7828C126.96 74.7828 133.199 78.1079 135.122 84.6855L135.998 87.663L136 87.6667Z" fill="#3F3D56"/>
<path d="M136 87.6666L137.426 89.1572L133.808 92.9283H129.073C129.073 92.9283 130.082 91.263 132.099 90.9991C134.117 90.7352 134.6 88.4511 134.6 88.4511L136 87.6666Z" fill="url(#paint13_linear_61_6864)"/>
<path opacity="0.22" d="M39.8013 13.479L39.0018 13.7411C42.462 11.7009 41.7991 6.51926 41.7572 6.2135C41.8118 6.4592 42.6168 9.87902 42.1779 11.002C41.6297 12.4052 39.8013 13.479 39.8013 13.479ZM34.083 19.7362C33.6605 20.3205 31.9814 21.2214 31.8667 21.2814C34.1249 19.9401 33.6132 16.4875 33.6132 16.4875V16.5075C33.7024 16.7441 34.4946 19.1648 34.083 19.7362Z" fill="white"/>
<path opacity="0.22" d="M33.0342 38.9976L70.1249 67.5191L71.6838 66.3579L32.8994 36.5078L33.0342 38.9976ZM72.9112 67.3353L112.923 38.5535V36.5897L71.6838 66.438L72.9112 67.3353Z" fill="white"/>
<path opacity="0.22" d="M112.901 36.1529L112.792 36.4587L111.978 37.2722C112.55 36.2858 110.935 33.9962 110.935 33.9962L110.29 33.5139L108.354 32.0578L71.6841 4.64473L72.8514 3.7511L110.452 32.5565C111.13 32.902 111.71 33.4126 112.138 34.0412C112.566 34.6698 112.828 35.396 112.901 36.1529Z" fill="white"/>
<path opacity="0.61" d="M142.438 23.0051C142.438 23.0051 136.277 30.9676 135.108 32.3017C132.975 34.726 131.6 37.9056 131.6 37.9056L128.505 51.0716L125.044 50.1488C125.044 50.1488 128.275 38.0766 129.574 35.5141C130.872 32.9515 141.691 22.3298 141.691 22.3298L142.438 23.0051Z" fill="url(#paint14_linear_61_6864)"/>
<path d="M135.999 87.663C135.935 87.481 133.879 81.7734 130.792 79.3801C127.658 76.9486 125.837 73.5925 125.837 73.5925C125.099 67.1496 125.048 50.1488 125.048 50.1488L128.508 51.0715C128.508 51.0715 130.843 55.7472 128.508 67.8485L126.96 74.7755C126.96 74.7755 133.2 78.1079 135.123 84.6855L135.999 87.663ZM110.292 68.9005C110.292 68.9005 110.585 75.7419 106.753 81.0946C106.067 82.0537 104.67 84.8402 103.614 87.0169L103.311 87.1789L102.596 87.0297L108.536 68.3035C108.536 68.3035 115.731 59.784 117.048 58.9686C118.365 58.1532 121.251 58.9686 121.251 58.9686L110.292 68.9005Z" fill="#25233A"/>
</g>
<defs>
<linearGradient id="paint0_linear_61_6864" x1="34.034" y1="33.9652" x2="34.7308" y2="32.0703" gradientUnits="userSpaceOnUse">
<stop offset="0.36" stop-color="#00272E"/>
<stop offset="0.75" stop-color="#3F80A1" stop-opacity="0.25"/>
<stop offset="1" stop-color="#69B9EB" stop-opacity="0"/>
</linearGradient>
<linearGradient id="paint1_linear_61_6864" x1="62.9588" y1="63.151" x2="83.3955" y2="7.54512" gradientUnits="userSpaceOnUse">
<stop offset="0.36" stop-color="#00272E"/>
<stop offset="0.75" stop-color="#3F80A1" stop-opacity="0.25"/>
<stop offset="1" stop-color="#69B9EB" stop-opacity="0"/>
</linearGradient>
<linearGradient id="paint2_linear_61_6864" x1="72.0462" y1="25.4093" x2="70.2054" y2="115.382" gradientUnits="userSpaceOnUse">
<stop stop-color="#68E1FD"/>
<stop offset="0.01" stop-color="#67DDF9"/>
<stop offset="0.12" stop-color="#5CB3CE"/>
<stop offset="0.24" stop-color="#538EA9"/>
<stop offset="0.37" stop-color="#4C718B"/>
<stop offset="0.5" stop-color="#465A73"/>
<stop offset="0.63" stop-color="#424A63"/>
<stop offset="0.79" stop-color="#404059"/>
<stop offset="0.99" stop-color="#3F3D56"/>
</linearGradient>
<linearGradient id="paint3_linear_61_6864" x1="72.17" y1="25.4111" x2="70.3293" y2="115.386" gradientUnits="userSpaceOnUse">
<stop stop-color="#68E1FD"/>
<stop offset="0.01" stop-color="#67DDF9"/>
<stop offset="0.12" stop-color="#5CB3CE"/>
<stop offset="0.24" stop-color="#538EA9"/>
<stop offset="0.37" stop-color="#4C718B"/>
<stop offset="0.5" stop-color="#465A73"/>
<stop offset="0.63" stop-color="#424A63"/>
<stop offset="0.79" stop-color="#404059"/>
<stop offset="0.99" stop-color="#3F3D56"/>
</linearGradient>
<linearGradient id="paint4_linear_61_6864" x1="72.8367" y1="25.4239" x2="70.996" y2="115.398" gradientUnits="userSpaceOnUse">
<stop stop-color="#68E1FD"/>
<stop offset="0.01" stop-color="#67DDF9"/>
<stop offset="0.12" stop-color="#5CB3CE"/>
<stop offset="0.24" stop-color="#538EA9"/>
<stop offset="0.37" stop-color="#4C718B"/>
<stop offset="0.5" stop-color="#465A73"/>
<stop offset="0.63" stop-color="#424A63"/>
<stop offset="0.79" stop-color="#404059"/>
<stop offset="0.99" stop-color="#3F3D56"/>
</linearGradient>
<linearGradient id="paint5_linear_61_6864" x1="124.886" y1="27.4513" x2="128.709" y2="27.4513" gradientUnits="userSpaceOnUse">
<stop stop-color="#ECC4D7"/>
<stop offset="0.42" stop-color="#EFD4D1"/>
<stop offset="1" stop-color="#F2EAC9"/>
</linearGradient>
<linearGradient id="paint6_linear_61_6864" x1="126.911" y1="25.3255" x2="126.123" y2="34.1618" gradientUnits="userSpaceOnUse">
<stop stop-color="#ECC4D7"/>
<stop offset="0.42" stop-color="#EFD4D1"/>
<stop offset="1" stop-color="#F2EAC9"/>
</linearGradient>
<linearGradient id="paint7_linear_61_6864" x1="121.472" y1="22.1879" x2="129.577" y2="22.1879" gradientUnits="userSpaceOnUse">
<stop stop-color="#ECC4D7"/>
<stop offset="0.42" stop-color="#EFD4D1"/>
<stop offset="1" stop-color="#F2EAC9"/>
</linearGradient>
<linearGradient id="paint8_linear_61_6864" x1="139.653" y1="15.492" x2="150.5" y2="15.492" gradientUnits="userSpaceOnUse">
<stop stop-color="#ECC4D7"/>
<stop offset="0.42" stop-color="#EFD4D1"/>
<stop offset="1" stop-color="#F2EAC9"/>
</linearGradient>
<linearGradient id="paint9_linear_61_6864" x1="148.005" y1="14.2088" x2="146.91" y2="5.70191" gradientUnits="userSpaceOnUse">
<stop stop-color="#ECC4D7"/>
<stop offset="0.42" stop-color="#EFD4D1"/>
<stop offset="1" stop-color="#F2EAC9"/>
</linearGradient>
<linearGradient id="paint10_linear_61_6864" x1="119.725" y1="10.916" x2="110.531" y2="5.16764" gradientUnits="userSpaceOnUse">
<stop stop-color="#ECC4D7"/>
<stop offset="0.42" stop-color="#EFD4D1"/>
<stop offset="1" stop-color="#F2EAC9"/>
</linearGradient>
<linearGradient id="paint11_linear_61_6864" x1="113.293" y1="5.45519" x2="118.73" y2="-1.18158" gradientUnits="userSpaceOnUse">
<stop stop-color="#ECC4D7"/>
<stop offset="0.42" stop-color="#EFD4D1"/>
<stop offset="1" stop-color="#F2EAC9"/>
</linearGradient>
<linearGradient id="paint12_linear_61_6864" x1="97.5367" y1="85.5609" x2="98.9391" y2="91.4072" gradientUnits="userSpaceOnUse">
<stop stop-color="#68E1FD"/>
<stop offset="0.01" stop-color="#67DDF9"/>
<stop offset="0.12" stop-color="#5CB3CE"/>
<stop offset="0.24" stop-color="#538EA9"/>
<stop offset="0.37" stop-color="#4C718B"/>
<stop offset="0.5" stop-color="#465A73"/>
<stop offset="0.63" stop-color="#424A63"/>
<stop offset="0.79" stop-color="#404059"/>
<stop offset="0.99" stop-color="#3F3D56"/>
</linearGradient>
<linearGradient id="paint13_linear_61_6864" x1="132.145" y1="89.5012" x2="134.483" y2="92.7749" gradientUnits="userSpaceOnUse">
<stop stop-color="#68E1FD"/>
<stop offset="0.01" stop-color="#67DDF9"/>
<stop offset="0.12" stop-color="#5CB3CE"/>
<stop offset="0.24" stop-color="#538EA9"/>
<stop offset="0.37" stop-color="#4C718B"/>
<stop offset="0.5" stop-color="#465A73"/>
<stop offset="0.63" stop-color="#424A63"/>
<stop offset="0.79" stop-color="#404059"/>
<stop offset="0.99" stop-color="#3F3D56"/>
</linearGradient>
<linearGradient id="paint14_linear_61_6864" x1="140.708" y1="40.4645" x2="126.908" y2="32.5074" gradientUnits="userSpaceOnUse">
<stop/>
<stop offset="0.98" stop-opacity="0"/>
</linearGradient>
<clipPath id="clip0_61_6864">
<rect width="150" height="108.655" fill="white" transform="translate(0.5)"/>
</clipPath>
</defs>
</svg>
