<svg width="31" height="31" viewBox="0 0 31 31" fill="none" xmlns="http://www.w3.org/2000/svg">
<g clip-path="url(#clip0_731_4200)">
<path d="M6.06089 0.638032C6.26948 0.517602 6.51737 0.484966 6.75003 0.547303C6.98269 0.60964 7.18105 0.761844 7.30149 0.970434L15.7243 15.5593L14.1513 16.4675L5.72849 1.87864C5.60806 1.67004 5.57542 1.42215 5.63776 1.18949C5.70009 0.956837 5.8523 0.758471 6.06089 0.638032Z" fill="#838383"/>
<path d="M16.848 16.4676L15.2749 15.5594L23.6978 0.970579C23.7574 0.867288 23.8368 0.776755 23.9314 0.704149C24.026 0.631543 24.134 0.578287 24.2492 0.54742C24.3644 0.516553 24.4846 0.508681 24.6029 0.524254C24.7211 0.539826 24.8351 0.578537 24.9384 0.638177C25.147 0.758616 25.2992 0.956982 25.3615 1.18964C25.4239 1.4223 25.3913 1.67019 25.2708 1.87878L16.848 16.4676Z" fill="#838383"/>
<path d="M3.41618 13.6408C3.26501 11.5349 3.81813 10.598 4.35368 10.131C5.14177 9.44487 6.0529 9.76187 6.9904 8.83315C7.75563 8.07144 7.41989 7.60562 8.06208 7.07827C9.15954 6.17593 10.4134 7.36187 12.2591 6.65698C13.6988 6.10737 13.4896 5.17983 14.6357 4.9771C16.2424 4.69233 16.8793 6.47651 18.94 6.42788C20.2812 6.39624 20.5443 5.69429 21.4982 5.93159C22.5429 6.19175 22.3138 7.30913 23.7318 8.26421C24.8955 9.04819 25.6115 8.67437 26.1558 9.48237C26.491 9.97808 26.3509 10.315 26.607 11.5332C26.7507 12.2213 26.9584 12.8946 27.2275 13.5441" fill="#F5F8F9"/>
<path d="M15.3887 11.4898C15.3022 11.4893 15.2177 11.4633 15.1458 11.4151C15.074 11.3669 15.0179 11.2985 14.9847 11.2186C14.9515 11.1386 14.9426 11.0507 14.9591 10.9658C14.9757 10.8808 15.0169 10.8026 15.0776 10.7409L15.9952 9.82394C16.036 9.78312 16.0845 9.75074 16.1378 9.72865C16.1911 9.70656 16.2483 9.69519 16.306 9.69519C16.3637 9.69519 16.4209 9.70656 16.4742 9.72865C16.5276 9.75074 16.576 9.78312 16.6169 9.82394C16.6577 9.86476 16.6901 9.91322 16.7121 9.96656C16.7342 10.0199 16.7456 10.0771 16.7456 10.1348C16.7456 10.1925 16.7342 10.2497 16.7121 10.303C16.6901 10.3563 16.6577 10.4048 16.6169 10.4456L15.6993 11.3609C15.6586 11.4018 15.6102 11.4343 15.5569 11.4565C15.5036 11.4786 15.4464 11.4899 15.3887 11.4898ZM18.9044 9.73195C18.8178 9.73149 18.7333 9.70551 18.6615 9.65727C18.5896 9.60904 18.5336 9.54068 18.5004 9.46076C18.4671 9.38084 18.4582 9.29289 18.4748 9.20794C18.4913 9.12298 18.5325 9.04478 18.5932 8.98312L19.5108 8.06613C19.5932 7.98369 19.705 7.93738 19.8216 7.93738C19.9382 7.93738 20.05 7.98369 20.1325 8.06613C20.2149 8.14857 20.2612 8.26038 20.2612 8.37697C20.2612 8.49356 20.2149 8.60537 20.1325 8.68781L19.2149 9.60305C19.1742 9.64402 19.1259 9.67652 19.0726 9.69864C19.0192 9.72077 18.9621 9.73209 18.9044 9.73195ZM23.2989 12.3687C23.2123 12.3682 23.1278 12.3422 23.056 12.294C22.9841 12.2458 22.9281 12.1774 22.8949 12.0975C22.8617 12.0176 22.8528 11.9296 22.8693 11.8447C22.8858 11.7597 22.927 11.6815 22.9877 11.6198L23.9053 10.7029C23.9878 10.6204 24.0996 10.5741 24.2162 10.5741C24.3328 10.5741 24.4446 10.6204 24.527 10.7029C24.6094 10.7853 24.6558 10.8971 24.6558 11.0137C24.6558 11.1303 24.6094 11.2421 24.527 11.3245L23.6094 12.2398C23.5688 12.2807 23.5204 12.3132 23.4671 12.3354C23.4138 12.3575 23.3566 12.3688 23.2989 12.3687ZM10.8377 13.9847C10.7508 13.9846 10.6659 13.9587 10.5937 13.9104C10.5215 13.8621 10.4652 13.7934 10.4319 13.7131C10.3986 13.6329 10.3898 13.5445 10.4067 13.4593C10.4236 13.374 10.4653 13.2957 10.5266 13.2341L11.4442 12.3171C11.5275 12.2395 11.6377 12.1972 11.7515 12.1992C11.8654 12.2012 11.974 12.2474 12.0545 12.3279C12.135 12.4084 12.1812 12.517 12.1832 12.6309C12.1852 12.7447 12.1429 12.8549 12.0653 12.9382L11.1483 13.8558C11.066 13.9382 10.9543 13.9846 10.8377 13.9847ZM19.6268 13.9847C19.5399 13.9846 19.455 13.9587 19.3828 13.9104C19.3105 13.8621 19.2542 13.7934 19.2209 13.7131C19.1877 13.6329 19.1789 13.5445 19.1958 13.4593C19.2126 13.374 19.2543 13.2957 19.3157 13.2341L20.2333 12.3171C20.2738 12.2751 20.3223 12.2416 20.3759 12.2186C20.4295 12.1955 20.4871 12.1834 20.5455 12.1828C20.6038 12.1823 20.6617 12.1934 20.7157 12.2154C20.7697 12.2375 20.8188 12.2701 20.8601 12.3114C20.9014 12.3526 20.934 12.4017 20.9561 12.4557C20.9783 12.5097 20.9894 12.5675 20.9889 12.6259C20.9885 12.6842 20.9764 12.7419 20.9533 12.7955C20.9303 12.8491 20.8969 12.8976 20.8549 12.9382L19.9374 13.8558C19.855 13.9381 19.7433 13.9845 19.6268 13.9847ZM11.8731 9.73195C11.7866 9.73149 11.7021 9.70551 11.6302 9.65727C11.5584 9.60904 11.5023 9.54068 11.4691 9.46076C11.4359 9.38084 11.427 9.29289 11.4435 9.20794C11.46 9.12298 11.5012 9.04478 11.562 8.98312L12.4795 8.06613C12.562 7.98369 12.6738 7.93738 12.7904 7.93738C12.907 7.93738 13.0188 7.98369 13.1012 8.06613C13.1837 8.14857 13.23 8.26038 13.23 8.37697C13.23 8.49356 13.1837 8.60537 13.1012 8.68781L12.1836 9.60305C12.143 9.64402 12.0946 9.67652 12.0413 9.69864C11.988 9.72077 11.9308 9.73209 11.8731 9.73195ZM5.72076 12.3687C5.63421 12.3682 5.54972 12.3422 5.47787 12.294C5.40601 12.2458 5.34997 12.1774 5.31676 12.0975C5.28355 12.0176 5.27465 11.9296 5.29117 11.8447C5.30769 11.7597 5.34889 11.6815 5.40962 11.6198L6.3272 10.7029C6.36802 10.662 6.41648 10.6296 6.46982 10.6076C6.52315 10.5855 6.58031 10.5741 6.63804 10.5741C6.69577 10.5741 6.75293 10.5855 6.80627 10.6076C6.8596 10.6296 6.90806 10.662 6.94888 10.7029C6.9897 10.7437 7.02208 10.7921 7.04417 10.8455C7.06627 10.8988 7.07764 10.956 7.07764 11.0137C7.07764 11.0714 7.06627 11.1286 7.04417 11.1819C7.02208 11.2352 6.9897 11.2837 6.94888 11.3245L6.0313 12.2398C5.99065 12.2807 5.94227 12.3132 5.88896 12.3354C5.83565 12.3575 5.77848 12.3688 5.72076 12.3687Z" fill="#E8EDF2"/>
<path d="M9.23572 25.53H21.7642V27.6623C21.7642 28.1861 21.5561 28.6885 21.1857 29.0589C20.8153 29.4294 20.3129 29.6375 19.789 29.6375H11.2109C10.6871 29.6375 10.1847 29.4294 9.81424 29.0589C9.44382 28.6885 9.23572 28.1861 9.23572 27.6623V25.53Z" fill="#FDD79B"/>
<path d="M20.0064 25.53V27.6623C20.0064 28.1861 19.7983 28.6885 19.4279 29.0589C19.0575 29.4294 18.5551 29.6375 18.0312 29.6375H19.7891C20.3129 29.6375 20.8153 29.4294 21.1857 29.0589C21.5562 28.6885 21.7643 28.1861 21.7643 27.6623V25.53H20.0064Z" fill="#FCCD7F"/>
<path d="M15.9857 27.5116H15.0142C12.1594 27.5116 9.39739 26.4972 7.22124 24.6493C5.72601 23.3803 4.56378 21.7649 3.83582 19.9439C3.10786 18.1229 2.83626 16.1515 3.04467 14.2015C3.06392 14.0215 3.14909 13.855 3.28378 13.734C3.41846 13.6131 3.59314 13.5462 3.77417 13.5464H27.2257C27.4067 13.5462 27.5814 13.6131 27.7161 13.734C27.8508 13.855 27.936 14.0215 27.9552 14.2015C28.1638 16.1514 27.8924 18.1227 27.1646 19.9438C26.4368 21.7648 25.2748 23.3802 23.7798 24.6493C21.6034 26.4974 18.8409 27.5119 15.9857 27.5116Z" fill="#E49280"/>
<path d="M27.9553 14.2015C27.9361 14.0215 27.8509 13.855 27.7162 13.734C27.5815 13.6131 27.4069 13.5462 27.2258 13.5464H26.2643C26.2904 15.3206 25.9236 17.0785 25.1902 18.6942C24.4567 20.3099 23.3749 21.7433 22.0221 22.8915C19.846 24.7394 17.084 25.7538 14.2291 25.7538H13.2565C10.492 25.7533 7.81194 24.8016 5.66626 23.0585C6.13403 23.6349 6.65423 24.1666 7.22017 24.647C9.39632 26.4948 12.1583 27.5093 15.0131 27.5093H15.9846C18.8395 27.5093 21.6014 26.4948 23.7776 24.647C25.2727 23.3783 26.4349 21.7634 27.1631 19.9428C27.8912 18.1222 28.1632 16.1512 27.9553 14.2015Z" fill="#DD7F66"/>
<path d="M27.9552 14.2015C27.936 14.0215 27.8508 13.855 27.7161 13.734C27.5814 13.6131 27.4068 13.5462 27.2257 13.5464H3.77417C3.59315 13.5462 3.41847 13.6131 3.28378 13.734C3.14909 13.855 3.06393 14.0215 3.04468 14.2015C2.97169 14.8877 2.95796 15.5789 3.00366 16.2675V16.2728H27.9962C28.0422 15.5824 28.0285 14.8894 27.9552 14.2015Z" fill="#FDD79B"/>
<path d="M25.9912 16.2728H27.9963C28.0121 16.0302 28.0209 15.7876 28.0221 15.5433V15.2521C28.0221 15.1601 28.018 15.0681 28.0139 14.9761C28.0139 14.9368 28.0098 14.8976 28.008 14.8589C28.0039 14.7839 27.9998 14.7089 27.9945 14.6339C27.9945 14.5982 27.9893 14.563 27.9863 14.5273C27.9781 14.4189 27.9688 14.3105 27.957 14.2021C27.9378 14.0221 27.8526 13.8556 27.7179 13.7346C27.5832 13.6137 27.4086 13.5468 27.2275 13.547H26.2643C26.2773 14.463 26.1857 15.3775 25.9912 16.2728Z" fill="#FCCD7F"/>
<path d="M23.2989 12.3687C23.3566 12.3689 23.4137 12.3575 23.4671 12.3354C23.5204 12.3133 23.5688 12.2808 23.6094 12.2398L24.527 11.3228C24.6094 11.2404 24.6557 11.1286 24.6557 11.012C24.6557 10.8954 24.6094 10.7836 24.527 10.7011C24.4445 10.6187 24.3327 10.5724 24.2161 10.5724C24.0996 10.5724 23.9877 10.6187 23.9053 10.7011L22.9877 11.6199C22.9264 11.6815 22.8847 11.7598 22.8678 11.8451C22.8509 11.9303 22.8597 12.0187 22.893 12.0989C22.9263 12.1792 22.9826 12.2478 23.0548 12.2962C23.127 12.3445 23.212 12.3703 23.2989 12.3705V12.3687ZM18.9043 9.73199C18.962 9.73213 19.0192 9.72081 19.0725 9.69868C19.1258 9.67656 19.1742 9.64406 19.2149 9.60309L20.1324 8.68609C20.2149 8.60365 20.2612 8.49184 20.2612 8.37525C20.2612 8.25867 20.2149 8.14685 20.1324 8.06441C20.05 7.98197 19.9382 7.93566 19.8216 7.93566C19.705 7.93566 19.5932 7.98197 19.5108 8.06441L18.5932 8.98316C18.5319 9.04473 18.4901 9.12309 18.4733 9.20834C18.4564 9.29359 18.4652 9.38193 18.4985 9.46221C18.5317 9.54249 18.588 9.61112 18.6603 9.65945C18.7325 9.70777 18.8174 9.73363 18.9043 9.73375V9.73199ZM28.3907 14.1546C28.3658 13.9211 28.2713 13.7005 28.1195 13.5213C27.9677 13.3421 27.7655 13.2127 27.5393 13.1498C27.325 12.5959 27.1565 12.0255 27.0354 11.4441C26.963 11.0973 26.908 10.747 26.8707 10.3947C26.8198 9.9482 26.7823 9.62594 26.5192 9.23512C26.1324 8.66207 25.6526 8.53551 25.1891 8.4148C24.8246 8.31871 24.4485 8.2191 23.9762 7.90094C23.4313 7.53414 23.1705 7.15328 22.9496 6.78121L25.652 2.09957C25.8237 1.7905 25.8672 1.42632 25.7729 1.08553C25.6786 0.744752 25.4541 0.454678 25.1479 0.277861C24.8417 0.101044 24.4783 0.0516502 24.136 0.14033C23.7937 0.229009 23.5 0.448658 23.3182 0.751912L20.5555 5.53492C20.4114 5.58062 20.2766 5.63805 20.1453 5.69488C19.8213 5.83258 19.4867 5.97554 18.9301 5.98785C18.0237 6.01012 17.4483 5.63219 16.8377 5.23199C16.1932 4.80953 15.5252 4.37301 14.559 4.5441C13.8289 4.67301 13.5043 5.06148 13.2213 5.40426C12.9612 5.71656 12.7156 6.01187 12.1022 6.24566C11.7432 6.38352 11.3617 6.45384 10.9772 6.45308L7.68245 0.75074C7.59557 0.594419 7.47845 0.456953 7.33791 0.346353C7.19737 0.235753 7.03622 0.154232 6.86386 0.106541C6.6915 0.0588495 6.51136 0.0459421 6.33396 0.0685708C6.15656 0.0911994 5.98544 0.148912 5.83056 0.238344C5.67569 0.327776 5.54017 0.447139 5.43189 0.589476C5.32361 0.731814 5.24475 0.894279 5.1999 1.0674C5.15504 1.24053 5.1451 1.42085 5.17064 1.59785C5.19618 1.77486 5.25669 1.94501 5.34866 2.0984L7.95374 6.61012C7.89405 6.64934 7.83654 6.69179 7.78147 6.73726C7.37131 7.07594 7.25823 7.41226 7.16038 7.70933C7.0719 7.97476 6.99631 8.20445 6.67874 8.52027C6.25335 8.94391 5.83088 9.05875 5.38381 9.18004C4.97014 9.29254 4.50081 9.41969 4.06604 9.79879C3.25042 10.5084 2.88128 11.7324 2.96448 13.4316C2.76402 13.6228 2.63816 13.8791 2.6094 14.1546C2.35094 16.5599 2.79836 18.9883 3.89702 21.1435C4.99568 23.2987 6.69806 25.0874 8.79631 26.2912V27.6623C8.79709 28.3024 9.05174 28.9162 9.50441 29.3688C9.95707 29.8215 10.5708 30.0761 11.211 30.0769H19.7891C20.4293 30.0761 21.043 29.8215 21.4956 29.3688C21.9483 28.9162 22.203 28.3024 22.2037 27.6623V26.2912C23.9824 25.271 25.4818 23.8274 26.5686 22.0887C27.6555 20.3499 28.2962 18.3697 28.434 16.3238C28.4359 16.3078 28.4369 16.2918 28.4369 16.2757C28.4817 15.5687 28.4663 14.8591 28.3907 14.1546ZM24.0787 1.19019C24.1095 1.13686 24.1505 1.09011 24.1993 1.05262C24.2482 1.01513 24.3039 0.987623 24.3634 0.97168C24.4229 0.955737 24.4849 0.951667 24.5459 0.959703C24.607 0.967739 24.6658 0.987723 24.7192 1.01851C24.8268 1.08075 24.9053 1.18319 24.9373 1.3033C24.9694 1.4234 24.9525 1.55133 24.8903 1.65894L22.4035 5.96734C22.1882 5.73729 21.9095 5.57639 21.6026 5.50504H21.5891L24.0787 1.19019ZM6.10979 1.65894C6.04756 1.55133 6.03062 1.4234 6.06271 1.3033C6.09479 1.18319 6.17327 1.08075 6.28088 1.01851C6.33421 0.987723 6.39307 0.967739 6.45412 0.959703C6.51516 0.951667 6.57719 0.955737 6.63667 0.97168C6.69614 0.987623 6.75189 1.01513 6.80073 1.05262C6.84957 1.09011 6.89054 1.13686 6.92131 1.19019L9.90256 6.35348C9.53401 6.30191 9.16077 6.2568 8.78928 6.30308L6.10979 1.65894ZM4.64495 10.4627C4.92737 10.2166 5.2467 10.1298 5.61585 10.0296C6.12503 9.89019 6.71096 9.73258 7.2969 9.14488C7.76565 8.68082 7.89045 8.29586 7.99299 7.98648C8.07385 7.74215 8.12249 7.59449 8.33752 7.41754C8.73128 7.0941 9.13088 7.13219 9.86096 7.23531C10.5483 7.33199 11.4037 7.45211 12.411 7.06773C13.2395 6.75133 13.6016 6.31597 13.8922 5.96676C14.143 5.665 14.2942 5.48336 14.7078 5.41012C15.3301 5.29996 15.7807 5.59469 16.3485 5.96793C16.9795 6.37808 17.7635 6.89605 18.943 6.86734C19.6684 6.85035 20.1201 6.65758 20.4823 6.50289C20.6205 6.43836 20.764 6.38583 20.9112 6.34586L20.9428 6.33941C21.0895 6.31145 21.2408 6.31787 21.3846 6.35816C21.7168 6.44078 21.8422 6.6359 22.0936 7.0689C22.3602 7.52769 22.6918 8.09898 23.4787 8.62867C24.0741 9.03004 24.5639 9.15953 24.9576 9.26383C25.4018 9.38101 25.5899 9.43961 25.7844 9.72848C25.9215 9.93121 25.9432 10.0742 25.9918 10.4961C26.0229 10.7632 26.0651 11.1283 26.1676 11.6257C26.2732 12.1279 26.4114 12.6227 26.5813 13.107H20.6862L20.8543 12.9382C20.8975 12.898 20.9321 12.8495 20.9561 12.7956C20.9802 12.7417 20.9931 12.6835 20.9941 12.6245C20.9952 12.5655 20.9843 12.5069 20.9622 12.4521C20.9401 12.3974 20.9072 12.3477 20.8655 12.306C20.8237 12.2643 20.774 12.2314 20.7193 12.2093C20.6646 12.1872 20.606 12.1763 20.547 12.1773C20.488 12.1784 20.4298 12.1913 20.3759 12.2153C20.322 12.2393 20.2735 12.274 20.2332 12.3171L19.4428 13.107H11.8971L12.0653 12.9382C12.1429 12.8549 12.1851 12.7448 12.1831 12.6309C12.1811 12.5171 12.135 12.4084 12.0545 12.3279C11.974 12.2474 11.8654 12.2013 11.7515 12.1993C11.6377 12.1973 11.5275 12.2395 11.4442 12.3171L10.6537 13.107H3.83225C3.8094 11.8408 4.08128 10.9519 4.64319 10.4627H4.64495ZM21.3266 27.6623C21.3261 28.0697 21.1639 28.4604 20.8756 28.7483C20.5874 29.0363 20.1966 29.198 19.7891 29.198H11.211C10.8038 29.1975 10.4134 29.0356 10.1255 28.7477C9.83764 28.4598 9.67569 28.0694 9.67522 27.6623V26.7511C11.3443 27.5408 13.1678 27.9506 15.0143 27.9511H15.9858C17.8323 27.9506 19.6557 27.5408 21.3248 26.7511L21.3266 27.6623ZM23.4946 24.3148C21.3968 26.0943 18.7355 27.0714 15.9846 27.0722H15.0143C12.1523 27.0732 9.39116 26.0157 7.26204 24.1032C5.13291 22.1908 3.78628 19.5585 3.48128 16.7129H27.5188C27.2035 19.6694 25.763 22.3913 23.4957 24.3148H23.4946ZM27.5768 15.8339H3.4221C3.40542 15.3047 3.425 14.775 3.48069 14.2484C3.48539 14.2042 3.50007 14.1617 3.52362 14.124C3.54717 14.0864 3.57897 14.0546 3.61663 14.031L3.62307 14.0275C3.66841 14.0004 3.72024 13.986 3.77307 13.9859H27.2258C27.2985 13.9855 27.3688 14.0122 27.4229 14.0607C27.477 14.1092 27.5112 14.1761 27.5188 14.2484C27.5747 14.7749 27.5944 15.3047 27.578 15.8339H27.5768ZM5.72131 12.3687C5.77903 12.3689 5.83621 12.3575 5.88952 12.3354C5.94283 12.3133 5.99121 12.2808 6.03186 12.2398L6.94944 11.3228C7.03188 11.2404 7.07819 11.1286 7.07819 11.012C7.07819 10.8954 7.03188 10.7836 6.94944 10.7011C6.867 10.6187 6.75519 10.5724 6.6386 10.5724C6.52201 10.5724 6.4102 10.6187 6.32776 10.7011L5.4096 11.6199C5.34826 11.6815 5.30654 11.7598 5.28968 11.8451C5.27282 11.9303 5.28158 12.0187 5.31486 12.0989C5.34814 12.1792 5.40444 12.2478 5.47667 12.2962C5.5489 12.3445 5.63382 12.3703 5.72073 12.3705L5.72131 12.3687ZM15.3893 11.4898C15.447 11.4899 15.5042 11.4786 15.5575 11.4565C15.6108 11.4344 15.6592 11.4019 15.6998 11.3609L16.6174 10.4439C16.6998 10.3615 16.7462 10.2497 16.7462 10.1331C16.7462 10.0165 16.6998 9.90467 16.6174 9.82223C16.535 9.73979 16.4232 9.69347 16.3066 9.69347C16.19 9.69347 16.0782 9.73979 15.9957 9.82223L15.0776 10.741C15.0162 10.8025 14.9745 10.8809 14.9576 10.9662C14.9408 11.0514 14.9495 11.1397 14.9828 11.22C15.0161 11.3003 15.0724 11.3689 15.1446 11.4173C15.2169 11.4656 15.3018 11.4914 15.3887 11.4916L15.3893 11.4898ZM11.8737 9.73199C11.9314 9.73213 11.9886 9.72081 12.0419 9.69868C12.0952 9.67656 12.1436 9.64406 12.1842 9.60309L13.1018 8.68609C13.1842 8.60365 13.2305 8.49184 13.2305 8.37525C13.2305 8.25867 13.1842 8.14685 13.1018 8.06441C13.0193 7.98197 12.9075 7.93566 12.7909 7.93566C12.6744 7.93566 12.5625 7.98197 12.4801 8.06441L11.5619 8.98316C11.5006 9.04473 11.4589 9.12309 11.442 9.20834C11.4252 9.29359 11.4339 9.38193 11.4672 9.46221C11.5005 9.54249 11.5568 9.61112 11.629 9.65945C11.7012 9.70777 11.7862 9.73363 11.8731 9.73375L11.8737 9.73199Z" fill="black"/>
</g>
<defs>
<clipPath id="clip0_731_4200">
<rect width="30" height="30" fill="white" transform="translate(0.5 0.0769043)"/>
</clipPath>
</defs>
</svg>
