<svg width="31" height="30" viewBox="0 0 31 30" fill="none" xmlns="http://www.w3.org/2000/svg">
<path d="M15.3301 7.96453H13.2946C13.0292 7.76737 12.7965 7.5298 12.6048 7.26047C12.5258 7.15266 12.4539 7.03781 12.3868 6.91805C11.8241 5.89547 11.8625 4.70531 12.3821 3.75C13.104 3.79722 13.7904 4.07987 14.3361 4.55461C14.628 4.80766 14.8721 5.11097 15.0568 5.45016C15.2668 5.83021 15.3991 6.24823 15.446 6.6799C15.4929 7.11156 15.4535 7.54824 15.3301 7.96453ZM18.6154 6.91805C18.3902 7.32787 18.0799 7.68471 17.7053 7.96453H15.6723C15.6076 7.74656 15.5645 7.52156 15.5479 7.29164C15.4949 6.65254 15.6316 6.01202 15.9407 5.45016C16.4411 4.54266 17.3057 3.96539 18.2514 3.79547C18.3725 3.77314 18.4948 3.75796 18.6177 3.75C19.1352 4.70555 19.1781 5.8957 18.6154 6.91805Z" fill="#1AB975"/>
<path d="M15.33 7.96453H13.2945C13.0292 7.76737 12.7964 7.5298 12.6047 7.26047H14.6354C14.8867 6.3684 14.7873 5.41398 14.3576 4.59281C14.3509 4.57975 14.3437 4.56693 14.3361 4.55437C14.6279 4.80742 14.872 5.11074 15.0568 5.44992C15.2667 5.83002 15.399 6.24808 15.4459 6.67978C15.4929 7.11148 15.4535 7.5482 15.33 7.96453ZM18.6153 6.91805C18.3902 7.32787 18.0798 7.68471 17.7052 7.96453H15.6722C15.6075 7.74656 15.5644 7.52156 15.5478 7.29164H17.0133C17.3953 7.00822 17.7114 6.64556 17.9401 6.22852C18.3687 5.45273 18.4526 4.59047 18.2513 3.79547C18.3724 3.77314 18.4947 3.75796 18.6176 3.75C19.1351 4.70555 19.178 5.8957 18.6153 6.91805Z" fill="#168E57"/>
<path d="M14.5401 8.0236C14.4552 8.0236 14.3732 7.97836 14.3296 7.89867L12.8872 5.25469C12.8722 5.22708 12.8627 5.19678 12.8594 5.16551C12.856 5.13425 12.8589 5.10263 12.8678 5.07246C12.8767 5.0423 12.8914 5.01418 12.9111 4.98971C12.9309 4.96524 12.9553 4.9449 12.9829 4.92985C13.0105 4.91479 13.0408 4.90533 13.072 4.90199C13.1033 4.89865 13.1349 4.9015 13.1651 4.91038C13.1953 4.91926 13.2234 4.93399 13.2478 4.95374C13.2723 4.97349 13.2927 4.99786 13.3077 5.02547L14.7501 7.66969C14.7699 7.70613 14.78 7.74711 14.7792 7.78862C14.7785 7.83012 14.767 7.87071 14.7458 7.90641C14.7246 7.94211 14.6945 7.97168 14.6584 7.99223C14.6224 8.01277 14.5816 8.02358 14.5401 8.0236ZM16.4626 8.0236C16.4211 8.02361 16.3803 8.0128 16.3442 7.99224C16.3081 7.97169 16.2779 7.94209 16.2567 7.90635C16.2356 7.87062 16.224 7.82998 16.2233 7.78845C16.2226 7.74691 16.2327 7.7059 16.2526 7.66945L17.6947 5.02524C17.7261 4.97126 17.7772 4.93164 17.8373 4.91483C17.8975 4.89801 17.9617 4.90531 18.0165 4.93519C18.0713 4.96506 18.1123 5.01514 18.1308 5.07477C18.1492 5.1344 18.1436 5.19887 18.1152 5.25445L16.6731 7.89867C16.6525 7.93653 16.6221 7.96812 16.5851 7.99011C16.548 8.0121 16.5057 8.02367 16.4626 8.0236Z" fill="#168E57"/>
<path d="M26.676 8.88498V13.0433C26.676 13.3845 26.6614 13.7234 26.6303 14.06C26.1496 19.3962 21.9142 23.6506 16.5878 24.1651H14.4149C9.08589 23.6508 4.8505 19.3965 4.3698 14.0602C4.34816 13.8123 4.3337 13.5639 4.32644 13.3151C4.3241 13.2237 4.3241 13.1349 4.3241 13.0435V8.88498C4.3241 8.64082 4.42109 8.40665 4.59374 8.234C4.76639 8.06135 5.00056 7.96436 5.24472 7.96436H25.7553C25.8763 7.96417 25.9961 7.98786 26.1079 8.03406C26.2197 8.08026 26.3212 8.14806 26.4067 8.23359C26.4923 8.31911 26.5601 8.42068 26.6063 8.53245C26.6525 8.64423 26.6762 8.76403 26.676 8.88498Z" fill="#E1EBF0"/>
<path d="M26.6759 11.0125V13.0435C26.6759 13.3848 26.6614 13.7237 26.6302 14.0603H4.36978C4.34813 13.8124 4.33367 13.5639 4.32642 13.3152V11.0125H26.6759Z" fill="#FB5858"/>
<path d="M21.5991 24.9881V25.4264C21.5991 25.6449 21.5123 25.8545 21.3578 26.009C21.2033 26.1635 20.9938 26.2503 20.7753 26.2503H10.2294C10.0363 26.2505 9.8494 26.1827 9.7014 26.0587C9.55339 25.9348 9.45378 25.7627 9.42006 25.5727C9.41043 25.5246 9.40564 25.4757 9.40576 25.4267V24.9884C9.40576 24.7699 9.49256 24.5603 9.64706 24.4058C9.80155 24.2513 10.0111 24.1646 10.2296 24.1646H20.7755C20.888 24.1646 20.9982 24.1885 21.0964 24.2292C21.0987 24.2316 21.1011 24.2316 21.1011 24.2316C21.2489 24.2953 21.3748 24.4009 21.4633 24.5354C21.5518 24.6698 21.599 24.8272 21.5991 24.9881Z" fill="#E1EBF0"/>
<path d="M26.676 8.88425V13.0425C26.676 13.3838 26.6615 13.7227 26.6303 14.0592C26.1496 19.3955 21.9142 23.6499 16.5878 24.1643H14.4149C11.3429 23.8688 8.63638 22.3303 6.80005 20.0564C8.4968 21.4292 10.5598 22.2726 12.7323 22.4817H14.9052C20.2318 21.9673 24.467 17.7129 24.9477 12.3767C24.9789 12.0401 24.9934 11.7012 24.9934 11.36V7.96362H25.7554C25.8763 7.96341 25.9961 7.98707 26.1079 8.03326C26.2197 8.07945 26.3213 8.14726 26.4068 8.23279C26.4924 8.31832 26.5602 8.41989 26.6063 8.53169C26.6525 8.64348 26.6762 8.76329 26.676 8.88425Z" fill="#B4BCBF"/>
<path d="M26.6759 11.0125V12.8033C26.6759 13.1446 26.6614 13.4835 26.6302 13.82C26.6229 13.8992 26.6157 13.981 26.6037 14.0605H24.6014C24.7734 13.431 24.8893 12.7874 24.9476 12.1375C24.9788 11.8009 24.9933 11.462 24.9933 11.1207V11.0125H26.6759Z" fill="#C94B4B"/>
<path d="M21.5991 24.988V25.4263C21.5991 25.6448 21.5123 25.8544 21.3578 26.0089C21.2033 26.1634 20.9938 26.2501 20.7753 26.2501H10.2293C10.0363 26.2504 9.84938 26.1826 9.70138 26.0586C9.55338 25.9347 9.45377 25.7626 9.42004 25.5726H20.1697C20.6342 25.5726 21.0125 25.2039 21.0125 24.7487V24.3105C21.0125 24.2793 21.0101 24.2481 21.0052 24.2146C21.0364 24.2169 21.0675 24.2242 21.0961 24.2289C21.0985 24.2312 21.1008 24.2312 21.1008 24.2312C21.2487 24.295 21.3746 24.4006 21.4632 24.5351C21.5517 24.6696 21.599 24.827 21.5991 24.988Z" fill="#B4BCBF"/>
</svg>
