<svg width="33" height="32" viewBox="0 0 33 32" fill="none" xmlns="http://www.w3.org/2000/svg">
<path d="M23.2315 8.93189H23.7824C24.0963 8.93189 24.3662 8.68334 24.3646 8.36949C24.363 8.05357 24.1039 7.81301 23.7875 7.81301H8.63074C8.31689 7.81301 8.04692 8.06156 8.04852 8.37541C8.05012 8.69133 8.30922 8.93189 8.62562 8.93189H9.18243C9.70055 8.93189 9.9694 9.5424 9.6259 9.93026C8.61779 11.0684 8.00256 12.5368 8.00256 14.1582V14.1579C8.00256 17.6574 10.8659 20.5203 14.3654 20.5203H18.048C21.5475 20.5203 24.4108 17.657 24.4108 14.1575V14.1536C24.4108 12.5325 23.7959 11.0671 22.7883 9.93041C22.4444 9.54264 22.7132 8.93189 23.2315 8.93189Z" fill="#F4B490"/>
<path d="M21.5408 32H10.8725C10.529 32 10.1951 31.8867 9.92243 31.6778C9.64981 31.4688 9.45369 31.1758 9.36444 30.8441L7.32847 23.2785C6.93031 21.799 8.19369 20.4025 9.70546 20.6509L13.1428 21.2157C15.1717 21.5491 17.2415 21.5491 19.2705 21.2157L22.7078 20.6509C24.2196 20.4025 25.4829 21.799 25.0848 23.2785L23.0488 30.8441C22.9595 31.1758 22.7634 31.4688 22.4908 31.6778C22.2182 31.8867 21.8843 32 21.5408 32Z" fill="#EA825E"/>
<path d="M19.184 30.8239H13.2291L12.7189 28.6862C12.4669 27.6302 13.2675 26.6161 14.3531 26.6161H18.06C19.1456 26.6161 19.9462 27.6303 19.6942 28.6862L19.184 30.8239Z" fill="#2D2C3B"/>
<path d="M13.5989 0C12.7624 0.133067 11.9941 0.637444 11.556 1.43793C11.1619 2.15801 11.1147 2.97359 11.3555 3.69527C11.2724 3.97529 11.245 4.26889 11.2749 4.55945C10.8548 4.05213 10.3017 3.6719 9.67761 3.46143C8.58997 3.09347 7.44895 3.28105 6.56104 3.87054C6.90869 4.87801 7.7015 5.71973 8.78913 6.08769C9.82418 6.43782 10.907 6.28405 11.7746 5.76049C11.9278 5.95822 12.1219 6.15706 12.3696 6.3519L12.5329 6.14427C11.447 5.28984 11.4577 4.38563 11.5663 3.91114C12.3557 3.75058 13.0719 3.25771 13.4889 2.49575C13.927 1.69527 13.9377 0.776266 13.5989 0Z" fill="#378F5D"/>
<path d="M20.8981 6.8021C20.3858 5.4341 19.4215 4.29812 18.1843 3.56613C18.0499 3.4866 18.0001 3.31494 18.0782 3.17979C18.1446 3.06437 18.1862 2.93635 18.2003 2.80393C18.2395 2.44908 18.0818 2.1095 17.7834 1.91353C17.2495 1.563 16.562 1.81731 16.3574 2.37955C16.3392 2.42935 16.3253 2.48061 16.3158 2.53276C16.3025 2.60731 16.2604 2.6736 16.1985 2.71722C16.1366 2.76083 16.0599 2.77824 15.9853 2.76564C14.5669 2.53108 13.0981 2.78155 11.8263 3.50011C11.6541 3.59737 11.6752 3.85168 11.861 3.91929L20.602 7.10092C20.7878 7.16853 20.9674 6.98727 20.8981 6.8021Z" fill="#F4B490"/>
<path d="M14.3406 7.19538C13.8717 7.19538 13.4915 6.81528 13.4915 6.34631C13.4915 5.87742 13.8716 5.49723 14.3406 5.49723C14.8094 5.49723 15.1896 5.87734 15.1896 6.34631C15.1896 6.81528 14.8095 7.19538 14.3406 7.19538ZM8.24959 1.96692C7.78069 1.96692 7.40051 1.58682 7.40051 1.11784C7.40051 0.648951 7.78061 0.26877 8.24959 0.26877C8.71848 0.26877 9.09866 0.648871 9.09866 1.11784C9.09866 1.58674 8.71848 1.96692 8.24959 1.96692Z" fill="#6DCC96"/>
<path d="M23.0797 30.6702H9.31763L9.36438 30.8441C9.37037 30.8665 9.37813 30.8881 9.38508 30.91H23.0281C23.0351 30.8881 23.0428 30.8665 23.0488 30.8441L23.0797 30.7291V30.6702Z" fill="#895654"/>
<path d="M23.1597 8.93717V8.93189H15.9269C15.8951 8.93189 15.8646 8.94452 15.8421 8.96701C15.8196 8.98949 15.807 9.01998 15.807 9.05177C15.807 9.08357 15.8196 9.11406 15.8421 9.13654C15.8646 9.15902 15.8951 9.17166 15.9269 9.17166H22.7542C22.8017 9.1065 22.8623 9.05199 22.9322 9.01161C23.002 8.97123 23.0795 8.94588 23.1597 8.93717Z" fill="#C66F58"/>
</svg>
